<svg viewBox="0 0 34 33" fill="none" xmlns="http://www.w3.org/2000/svg">
    <path
        d="M15.0311 31.9533L10.9459 30.8602C7.07179 29.8221 4.01215 27.1929 2.19747 23.783C0.382792 20.3689 -0.182713 16.1782 0.931416 12.0171C2.04554 7.85603 4.63253 4.50943 7.90739 2.45842C11.1823 0.411629 15.145 -0.335342 19.0191 0.702823L23.1043 1.79585C23.8428 1.9942 24.269 2.80025 24.058 3.59365L16.7487 30.8687C16.5377 31.6621 15.7611 32.1474 15.0226 31.9491L15.0311 31.9533ZM11.7182 27.9779L14.4613 28.7122L20.9984 4.31952L18.2553 3.58521C15.1112 2.74117 11.8997 3.34466 9.25362 5.00319C6.60756 6.6575 4.5228 9.36686 3.61546 12.7346C2.70812 16.1023 3.1639 19.4953 4.6283 22.2511C6.0927 25.0111 8.57418 27.1381 11.7182 27.9779Z"
        fill="#6D150B" />
    <path fill-rule="evenodd" clip-rule="evenodd"
        d="M15.4153 30.5142L11.3302 29.4211C4.31201 27.5389 0.256416 19.9088 2.27366 12.38C4.29091 4.847 11.6172 0.268105 18.6395 2.15031L22.7247 3.24333C21.3447 8.39196 16.7953 25.3698 15.4153 30.5184V30.5142Z"
        fill="#E89805" />
    <path fill-rule="evenodd" clip-rule="evenodd"
        d="M2.26465 12.4055L2.2731 12.3802C2.72466 10.6963 3.44209 9.16442 4.35787 7.81396L20.3481 12.0975L19.061 16.9042L2.26465 12.4055Z"
        fill="#FFCC00" />
    <path fill-rule="evenodd" clip-rule="evenodd"
        d="M1.99509 18.9343C1.7883 17.8032 1.71234 16.63 1.77986 15.4399L18.2681 19.8585L17.4072 23.0616L1.99087 18.93L1.99509 18.9343Z"
        fill="#FFCC00" />
    <path
        d="M23.109 1.79999C26.9831 2.83816 30.0427 5.46733 31.8574 8.87724C33.6721 12.2914 34.2376 16.482 33.1235 20.6431C32.0093 24.8042 29.4224 28.1508 26.1475 30.2018C22.8726 32.2486 18.9099 32.9956 15.0358 31.9574C11.1616 30.9193 8.10199 28.2901 6.28731 24.8802C4.47264 21.466 3.90713 17.2754 5.02126 13.1143C6.13539 8.9532 8.72236 5.6066 11.9972 3.55559C15.2721 1.5088 19.2348 0.761825 23.109 1.79999ZM29.4266 10.4092C27.9622 7.64917 25.4807 5.52219 22.3367 4.68238C19.1926 3.83834 15.9811 4.44183 13.335 6.10036C10.689 7.75467 8.60421 10.464 7.69687 13.8317C6.78953 17.1994 7.24953 20.5925 8.70971 23.3482C10.1741 26.1082 12.6556 28.2352 15.7996 29.075C18.9437 29.9149 22.1552 29.3156 24.8013 27.6571C27.4473 26.0027 29.5321 23.2934 30.4394 19.9257C31.3426 16.5538 30.8868 13.1649 29.4266 10.4092Z"
        fill="#6D150B" />
    <path fill-rule="evenodd" clip-rule="evenodd"
        d="M22.7245 3.23917C29.7427 5.12138 33.7983 12.7515 31.781 20.2803C29.7638 27.8133 22.4375 32.3922 15.4151 30.51C8.39697 28.6278 4.34138 20.9977 6.35863 13.4689C8.37587 5.93587 15.7021 1.35697 22.7245 3.23917Z"
        fill="#FFCC00" />
    <path fill-rule="evenodd" clip-rule="evenodd"
        d="M24.32 29.5731C22.5813 30.4383 20.6695 30.9194 18.7198 30.9363L11.8662 5.36616C13.4699 4.20139 15.293 3.39956 17.209 3.03662L24.32 29.5731Z"
        fill="white" />
    <path fill-rule="evenodd" clip-rule="evenodd"
        d="M22.7247 3.23898C23.2733 3.38669 23.8009 3.56816 24.3073 3.77917L29.8779 24.572C29.0634 25.8254 28.0801 26.9269 26.9702 27.8469L20.2686 2.84229C21.0831 2.89293 21.906 3.02375 22.7205 3.23898H22.7247Z"
        fill="white" />
    <path
        d="M22.0742 5.65749C24.9566 6.42979 27.2313 8.38795 28.5817 10.9243C29.9322 13.4648 30.3542 16.5835 29.5228 19.6812C28.6915 22.7746 26.7713 25.2687 24.3278 26.7922C21.8927 28.3157 18.9428 28.8727 16.0605 28.1004C13.1781 27.3281 10.9034 25.37 9.55293 22.8336C8.20247 20.2931 7.78045 17.1744 8.61183 14.0768C9.4432 10.9834 11.3634 8.48924 13.8069 6.96575C16.2419 5.44226 19.1918 4.8852 22.0742 5.65749ZM26.1551 12.4562C25.1507 10.5698 23.4584 9.11382 21.3061 8.53988C19.1539 7.96593 16.9593 8.37529 15.1489 9.5063C13.3426 10.6373 11.912 12.49 11.2959 14.7942C10.6797 17.0984 10.9878 19.4195 11.988 21.3017C12.9924 23.1881 14.6847 24.6441 16.837 25.218C18.9893 25.792 21.1838 25.3826 22.9942 24.2516C24.8005 23.1206 26.2269 21.268 26.8472 18.9637C27.4676 16.6595 27.1553 14.3384 26.1551 12.4562Z"
        fill="#6D150B" />
    <path fill-rule="evenodd" clip-rule="evenodd"
        d="M21.6901 7.09626C26.7248 8.44671 29.6325 13.9161 28.185 19.3179C26.7375 24.7197 21.4833 28.003 16.4487 26.6568C11.414 25.3106 8.50628 19.837 9.9538 14.4352C11.4013 9.03332 16.6554 5.75002 21.6901 7.09626Z"
        fill="#E89805" />
    <path fill-rule="evenodd" clip-rule="evenodd"
        d="M20.6736 7.48898C25.2399 8.71283 27.8437 13.8066 26.4848 18.8666C25.1301 23.9266 20.3276 27.0369 15.7613 25.813C11.1951 24.5892 8.59124 19.4954 9.95014 14.4354C11.309 9.3754 16.1074 6.26513 20.6736 7.48898Z"
        fill="#FFCC00" />
</svg>
    