<svg width="28" height="28" viewBox="0 0 28 28" fill="none" xmlns="http://www.w3.org/2000/svg">
    <path
        d="M21.712 6.13484C20.3919 3.87187 18.585 2.625 16.625 2.625H11.375C9.415 2.625 7.60813 3.87187 6.28797 6.13484C5.05422 8.24906 4.375 11.0469 4.375 14C4.375 16.9531 5.05422 19.7509 6.28797 21.8652C7.60813 24.1281 9.415 25.375 11.375 25.375H16.625C18.585 25.375 20.3919 24.1281 21.712 21.8652C22.9458 19.7509 23.625 16.9531 23.625 14C23.625 11.0469 22.9458 8.24906 21.712 6.13484ZM21.852 13.125H18.352C18.2837 11.3295 17.9262 9.55669 17.2933 7.875H20.6391C21.3084 9.33844 21.7503 11.1562 21.852 13.125ZM19.5989 6.125H16.4566C16.0911 5.49097 15.6504 4.90339 15.1441 4.375H16.625C17.7188 4.375 18.7469 5.03125 19.5989 6.125ZM6.125 14C6.125 8.78281 8.53125 4.375 11.375 4.375C14.2188 4.375 16.625 8.78281 16.625 14C16.625 19.2172 14.2188 23.625 11.375 23.625C8.53125 23.625 6.125 19.2172 6.125 14ZM16.625 23.625H15.1473C15.6537 23.0966 16.0944 22.509 16.4598 21.875H19.6022C18.7469 22.9688 17.7188 23.625 16.625 23.625ZM20.6391 20.125H17.2944C17.9273 18.4433 18.2848 16.6705 18.3531 14.875H21.8531C21.7503 16.8438 21.3084 18.6616 20.6391 20.125Z"
        fill="white" />
</svg>
    