<svg width="28" height="29" viewBox="0 0 28 29" fill="none" xmlns="http://www.w3.org/2000/svg">
    <path fill-rule="evenodd" clip-rule="evenodd"
        d="M27.3265 7.6416L27.5682 6.41512L21.8506 2.16574L14.0979 9.91848L1.11694 6.41512L0.869263 7.64159L8.62201 15.3943L1.11396 21.9176L0.872236 23.1441L6.3481 28.62L14.0979 20.8702L21.8476 28.62L27.3235 23.1441L27.5712 21.9176L19.5737 15.3943L27.3265 7.6416Z"
        fill="#6B0000" />
    <path fill-rule="evenodd" clip-rule="evenodd"
        d="M22.0923 26.5788L14.3426 18.8291L6.5928 26.5788L1.92862 21.9146L9.67837 14.1649L1.92861 6.41513L6.59279 1.75095L14.3426 9.50071L22.0923 1.75094L26.7565 6.41512L19.0067 14.1649L26.7565 21.9147L22.0923 26.5788Z"
        fill="#BF1B1B" />
    <path
        d="M6.58981 2.56561L14.3396 10.3154L22.0893 2.5656L25.9389 6.41512L18.1891 14.1649L25.9388 21.9146L22.0893 25.7642L14.3396 18.0144L6.58981 25.7642L2.7403 21.9146L10.4901 14.1649L2.74031 6.41512L6.58981 2.56561ZM6.59279 0.939271L1.11694 6.41512L8.86669 14.1649L1.11694 21.9146L6.59281 27.3905L14.3426 19.6407L22.0923 27.3905L27.5682 21.9147L19.8184 14.1649L27.5682 6.41512L22.0923 0.939262L14.3425 8.68903L6.59279 0.939271Z"
        fill="#6D150B" />
</svg>
    