<svg viewBox="0 0 24 24" xmlns="http://www.w3.org/2000/svg">
    <path d="M20,6a6,6,0,1,0-6,6A6.006,6.006,0,0,0,20,6ZM10,6a4,4,0,1,1,4,4A4,4,0,0,1,10,6Z"
        fill="white" />
    <path
        d="M17,14H11a7.008,7.008,0,0,0-7,7v2a1,1,0,0,0,2,0V21a5.006,5.006,0,0,1,5-5h6a5.006,5.006,0,0,1,5,5v2a1,1,0,0,0,2,0V21A7.008,7.008,0,0,0,17,14Z"
        fill="white"
    />
    <path
        d="M4,7A1,1,0,0,0,3,8v2H1a1,1,0,0,0,0,2H3v2a1,1,0,0,0,2,0V12H7a1,1,0,0,0,0-2H5V8A1,1,0,0,0,4,7Z"
        fill="white"
    />
</svg>